<?xml version="1.0" encoding="UTF-8"?>
<!DOCTYPE svg PUBLIC "-//W3C//DTD SVG 1.0//EN" "http://www.w3.org/TR/2001/REC-SVG-20010904/DTD/svg10.dtd">
<!-- Creator: CorelDRAW -->
<svg xmlns="http://www.w3.org/2000/svg" xml:space="preserve" width="118.499mm" height="54.869mm" version="1.0" style="shape-rendering:geometricPrecision; text-rendering:geometricPrecision; image-rendering:optimizeQuality; fill-rule:evenodd; clip-rule:evenodd"
viewBox="0 0 11849.9 5486.9"
 xmlns:xlink="http://www.w3.org/1999/xlink"
 xmlns:xodm="http://www.corel.com/coreldraw/odm/2003"
 data-name="Layer 1">
 <defs>
  <style type="text/css">
   <![CDATA[
    .fil0 {fill:black;fill-rule:nonzero}
   ]]>
  </style>
 </defs>
 <g id="Layer_x0020_1">
  <metadata id="CorelCorpID_0Corel-Layer"/>
  <g id="_2316463973488">
   <path class="fil0" d="M1969.16 1096.47l-42.86 14.29c-336.81,-723.64 -630.5,-952.5 -931.6,-952.5 -351.1,0 -565.94,301.1 -565.94,759.62 0,680.51 458.52,1081.88 909.9,1511.83 437.09,408.52 881.33,888.47 881.33,1690.95 0,888.47 -544.51,1368.69 -1239.57,1368.69 -293.69,0 -630.5,-79.38 -902.76,-193.68l-79.38 -988.75 42.86 -21.43c379.94,752.21 695.06,1074.74 1075,1074.74 451.38,0 716.49,-451.38 716.49,-988.75 0,-695.06 -429.95,-1132.15 -867.04,-1554.96 -437.09,-422.81 -894.28,-896.14 -894.28,-1612.63 0,-737.92 487.1,-1175.01 1124.74,-1175.01 207.96,0 480.22,50.01 687.92,114.56l85.19 953.03z"/>
   <path class="fil0" d="M2900.76 4155.85l0 -2965.72c0,-487.36 -35.72,-680.77 -179.12,-1039.02l0 -14.29 846.66 0.01 0 14.29c-129.12,308.24 -179.12,551.66 -179.12,1039.02l0 2958.56c0,873.13 372.53,1182.42 867.04,1182.42 673.36,0 917.05,-580.5 917.05,-1239.57l0 -2808.81c0,-515.94 -71.7,-737.92 -343.96,-1132.15l0 -14.29 781.05 0 7.14 14.29c-244.74,401.37 -316.44,616.21 -316.44,1132.15l0 2787.38c0,767.29 -300.83,1418.7 -1160.73,1418.7 -666.22,0 -1239.57,-387.09 -1239.57,-1332.97z"/>
   <path class="fil0" d="M8295.08 11.68c706.97,61.12 1025.53,962.55 928.69,2084.92 -156.63,1822.45 -1241.42,3483.76 -2268.54,3395.13 -714.38,-61.65 -1025.26,-969.7 -928.16,-2092.33 157.43,-1822.18 1232.96,-3477.15 2268.01,-3387.72zm-1313.92 5350.14c910.96,79.38 1690.16,-1969.03 1829.86,-3587.22 75.41,-875.51 -38.89,-1589.88 -534.72,-1632.48 -918.37,-79.38 -1698.1,1975.64 -1836.47,3579.28 -76.2,881.86 38.36,1596.23 541.33,1640.42z"/>
   <path class="fil0" d="M11596.56 1096.47l-42.34 14.29c-336.55,-723.64 -630.5,-952.5 -931.33,-952.5 -351.1,0 -566.21,301.1 -566.21,759.62 0,680.51 458.79,1081.88 910.17,1511.83 437.09,408.52 881.33,888.47 881.33,1690.95 0,888.47 -544.51,1368.69 -1239.57,1368.69 -293.95,0 -630.5,-79.38 -903.02,-193.68l-79.38 -988.75 42.86 -21.43c379.68,752.21 695.06,1074.74 1074.74,1074.74 451.38,0 716.49,-451.38 716.49,-988.75 0,-695.06 -429.68,-1132.15 -866.78,-1554.96 -437.1,-422.81 -895.88,-895.61 -895.88,-1612.11 0,-737.92 487.36,-1175.01 1125.01,-1175.01 207.96,0 480.22,50.01 687.92,114.56l85.99 952.51z"/>
  </g>
 </g>
</svg>
